<?xml version="1.0" encoding="UTF-8"?>
<svg width="28px" height="35px" viewBox="0 0 28 35" version="1.1" xmlns="http://www.w3.org/2000/svg" xmlns:xlink="http://www.w3.org/1999/xlink">
    <!-- Generator: Sketch 60.1 (88133) - https://sketch.com -->
    <title>Imported Layers</title>
    <desc>Created with Sketch.</desc>
    <g id="Page-1" stroke="none" stroke-width="1" fill="none" fill-rule="evenodd">
        <g id="wink-web-paywall-Account" transform="translate(-421.000000, -449.000000)">
            <g id="Imported-Layers" transform="translate(422.000000, 450.000000)">
                <path d="M3.42636667,15 L0.806,15 C0.360966667,15 0,15.3664286 0,15.8181429 L0,32.1818571 C0,32.6335714 0.360966667,33 0.806,33 L25.194,33 C25.6390333,33 26,32.6335714 26,32.1818571 L26,15.8181429 C26,15.3664286 25.6390333,15 25.194,15 L22.3721333,15 M23,14.7828947 L3,14.7828947 M5,15 L5,7.41529412 C5,3.46544118 8.96926316,0 13,0 C17.0307368,0 21,3.46544118 21,7.41529412 L21,15" id="Stroke-1" stroke="#4D6A79" stroke-width="2"></path>
                <path d="M14.9014,28.034 C14.9572,28.5305 14.4958,29 13.906,29 L12.1054,29 C11.5156,29 11.0542,28.5305 11.11,28.034 L11.5912,23.741 C10.6486,23.3135 10,22.496 10,21.5285 C10,20.1285 11.3428,19 13,19 C14.6566,19 16,20.1385 16,21.5385 C16,22.502 15.3568,23.333 14.4196,23.762 L14.9014,28.034 Z" id="Fill-2" fill="#3F5F6E"></path>
            </g>
        </g>
    </g>
</svg>